name Walk5.mot
datacolumns 19
datarows 22
range 1.89800000 1.91900000
endheader

                time	   L_ground_force_vx	   L_ground_force_vy	   L_ground_force_vz	   L_ground_force_px	   L_ground_force_py	   L_ground_force_pz	   R_ground_force_vx	   R_ground_force_vy	   R_ground_force_vz	   R_ground_force_px	   R_ground_force_py	   R_ground_force_pz	   L_ground_torque_x	   L_ground_torque_y	   L_ground_torque_z	   R_ground_torque_x	   R_ground_torque_y	   R_ground_torque_z	
          1.89800000	          0.00000000	          0.00000000	          0.00000000	          0.00000000	          0.00000000	          0.00000000	        -25.62083039	        473.16881792	        -24.14686048	          0.23720847	          0.00000000	          0.05256851	          0.00000000	          0.00000000	          0.00000000	          0.00000000	          1.59539498	          0.00000000	
          1.89900000	          0.00000000	          0.00000000	          0.00000000	          0.00000000	          0.00000000	          0.00000000	        -25.19614937	        471.91488794	        -23.88957135	          0.23761336	          0.00000000	          0.05235700	          0.00000000	          0.00000000	          0.00000000	          0.00000000	          1.59455724	          0.00000000	
          1.90000000	          0.00000000	          0.00000000	          0.00000000	          0.00000000	          0.00000000	          0.00000000	        -24.77860754	        470.71896293	        -23.66361435	          0.23808992	          0.00000000	          0.05221313	          0.00000000	          0.00000000	          0.00000000	          0.00000000	          1.60003799	          0.00000000	
          1.90100000	          0.00000000	          0.00000000	          0.00000000	          0.00000000	          0.00000000	          0.00000000	        -24.39193052	        469.60638016	        -23.46396435	          0.23865670	          0.00000000	          0.05214232	          0.00000000	          0.00000000	          0.00000000	          0.00000000	          1.60168786	          0.00000000	
          1.90200000	          0.00000000	          0.00000000	          0.00000000	          0.00000000	          0.00000000	          0.00000000	        -24.05195173	        468.57315923	        -23.27814616	          0.23929876	          0.00000000	          0.05210932	          0.00000000	          0.00000000	          0.00000000	          0.00000000	          1.59294124	          0.00000000	
          1.90300000	          0.00000000	          0.00000000	          0.00000000	          0.00000000	          0.00000000	          0.00000000	        -23.75342863	        467.59956464	        -23.09375157	          0.23996405	          0.00000000	          0.05207746	          0.00000000	          0.00000000	          0.00000000	          0.00000000	          1.58063920	          0.00000000	
          1.90400000	          0.00000000	          0.00000000	          0.00000000	          0.00000000	          0.00000000	          0.00000000	        -23.46967756	        466.65454610	        -22.90625339	          0.24058001	          0.00000000	          0.05203082	          0.00000000	          0.00000000	          0.00000000	          0.00000000	          1.57764553	          0.00000000	
          1.90500000	          0.00000000	          0.00000000	          0.00000000	          0.00000000	          0.00000000	          0.00000000	        -23.16964050	        465.70024663	        -22.71993194	          0.24110783	          0.00000000	          0.05194724	          0.00000000	          0.00000000	          0.00000000	          0.00000000	          1.59167034	          0.00000000	
          1.90600000	          0.00000000	          0.00000000	          0.00000000	          0.00000000	          0.00000000	          0.00000000	        -22.83684567	        464.72518755	        -22.53760300	          0.24158787	          0.00000000	          0.05180691	          0.00000000	          0.00000000	          0.00000000	          0.00000000	          1.62341072	          0.00000000	
          1.90700000	          0.00000000	          0.00000000	          0.00000000	          0.00000000	          0.00000000	          0.00000000	        -22.47807107	        463.78199265	        -22.35620905	          0.24211503	          0.00000000	          0.05164682	          0.00000000	          0.00000000	          0.00000000	          0.00000000	          1.66626565	          0.00000000	
          1.90800000	          0.00000000	          0.00000000	          0.00000000	          0.00000000	          0.00000000	          0.00000000	        -22.11379660	        462.95078842	        -22.16770873	          0.24275767	          0.00000000	          0.05153130	          0.00000000	          0.00000000	          0.00000000	          0.00000000	          1.70621546	          0.00000000	
          1.90900000	          0.00000000	          0.00000000	          0.00000000	          0.00000000	          0.00000000	          0.00000000	        -21.76014667	        462.25882955	        -21.95841291	          0.24349825	          0.00000000	          0.05147107	          0.00000000	          0.00000000	          0.00000000	          0.00000000	          1.73110328	          0.00000000	
          1.91000000	          0.00000000	          0.00000000	          0.00000000	          0.00000000	          0.00000000	          0.00000000	        -21.42544117	        461.66695486	        -21.72012700	          0.24424852	          0.00000000	          0.05143455	          0.00000000	          0.00000000	          0.00000000	          0.00000000	          1.74149472	          0.00000000	
          1.91100000	          0.00000000	          0.00000000	          0.00000000	          0.00000000	          0.00000000	          0.00000000	        -21.11424485	        461.11490333	        -21.46082003	          0.24492882	          0.00000000	          0.05139826	          0.00000000	          0.00000000	          0.00000000	          0.00000000	          1.74593517	          0.00000000	
          1.91200000	          0.00000000	          0.00000000	          0.00000000	          0.00000000	          0.00000000	          0.00000000	        -20.82475034	        460.56216837	        -21.19430037	          0.24553954	          0.00000000	          0.05135155	          0.00000000	          0.00000000	          0.00000000	          0.00000000	          1.74891384	          0.00000000	
          1.91300000	          0.00000000	          0.00000000	          0.00000000	          0.00000000	          0.00000000	          0.00000000	        -20.55263180	        460.00091399	        -20.92851342	          0.24613465	          0.00000000	          0.05129029	          0.00000000	          0.00000000	          0.00000000	          0.00000000	          1.74922887	          0.00000000	
          1.91400000	          0.00000000	          0.00000000	          0.00000000	          0.00000000	          0.00000000	          0.00000000	        -20.29997730	        459.44521489	        -20.66933993	          0.24674627	          0.00000000	          0.05121893	          0.00000000	          0.00000000	          0.00000000	          0.00000000	          1.74456118	          0.00000000	
          1.91500000	          0.00000000	          0.00000000	          0.00000000	          0.00000000	          0.00000000	          0.00000000	        -20.06779367	        458.92160913	        -20.42581838	          0.24737166	          0.00000000	          0.05115124	          0.00000000	          0.00000000	          0.00000000	          0.00000000	          1.73418626	          0.00000000	
          1.91600000	          0.00000000	          0.00000000	          0.00000000	          0.00000000	          0.00000000	          0.00000000	        -19.84517410	        458.46977107	        -20.20569569	          0.24799921	          0.00000000	          0.05110660	          0.00000000	          0.00000000	          0.00000000	          0.00000000	          1.71926045	          0.00000000	
          1.91700000	          0.00000000	          0.00000000	          0.00000000	          0.00000000	          0.00000000	          0.00000000	        -19.61875828	        458.12939424	        -20.01061663	          0.24861870	          0.00000000	          0.05109789	          0.00000000	          0.00000000	          0.00000000	          0.00000000	          1.70151528	          0.00000000	
          1.91800000	          0.00000000	          0.00000000	          0.00000000	          0.00000000	          0.00000000	          0.00000000	        -19.38529283	        457.90308800	        -19.84006477	          0.24921189	          0.00000000	          0.05111353	          0.00000000	          0.00000000	          0.00000000	          0.00000000	          1.68316786	          0.00000000	
          1.91900000	          0.00000000	          0.00000000	          0.00000000	          0.00000000	          0.00000000	          0.00000000	        -19.14843012	        457.74558905	        -19.69381948	          0.24975088	          0.00000000	          0.05111319	          0.00000000	          0.00000000	          0.00000000	          0.00000000	          1.66770959	          0.00000000	
